<svg id="visual" viewBox="0 0 900 600" width="900" height="600" xmlns="http://www.w3.org/2000/svg" xmlns:xlink="http://www.w3.org/1999/xlink" version="1.1"><g transform="translate(0, 600)"><path d="M0 -540.8C118.6 -540.5 237.2 -540.3 270.4 -468.4C303.6 -396.5 251.5 -253 282.3 -163C313.2 -73 427 -36.5 540.8 0L0 0Z" fill="#f7e3d8"></path><path d="M0 -360.6C79.1 -360.4 158.1 -360.2 180.3 -312.2C202.4 -264.3 167.7 -168.7 188.2 -108.7C208.8 -48.7 284.7 -24.3 360.6 0L0 0Z" fill="#f7cdca"></path><path d="M0 -180.3C39.5 -180.2 79.1 -180.1 90.1 -156.1C101.2 -132.2 83.8 -84.3 94.1 -54.3C104.4 -24.3 142.3 -12.2 180.3 0L0 0Z" fill="#f5c2c8"></path></g></svg>