<svg id="visual" viewBox="0 0 540 1860" width="540" height="1860" xmlns="http://www.w3.org/2000/svg" xmlns:xlink="http://www.w3.org/1999/xlink" version="1.1"><g transform="translate(0, 1860)"><path d="M0 -540C112.1 -536.1 224.2 -532.2 270 -467.7C315.8 -403.1 295.2 -278 329.1 -190C363 -102 451.5 -51 540 0L0 0Z" fill="#f7e3d8"></path><path d="M0 -360C74.7 -357.4 149.5 -354.8 180 -311.8C210.5 -268.8 196.8 -185.4 219.4 -126.7C242 -68 301 -34 360 0L0 0Z" fill="#f7cdca"></path><path d="M0 -180C37.4 -178.7 74.7 -177.4 90 -155.9C105.3 -134.4 98.4 -92.7 109.7 -63.3C121 -34 150.5 -17 180 0L0 0Z" fill="#f5c2c8"></path></g></svg>