<?xml version="1.0" encoding="UTF-8"?>
<svg width="700pt" height="700pt" version="1.1" viewBox="0 0 700 700" xmlns="http://www.w3.org/2000/svg">
 <path d="m393.75 459.38c24.164 0 43.75 19.586 43.75 43.75s-19.586 43.75-43.75 43.75h-87.5c-24.164 0-43.75-19.586-43.75-43.75s19.586-43.75 43.75-43.75zm131.25-218.75c24.164 0 43.75 19.586 43.75 43.75s-19.586 43.75-43.75 43.75h-350c-24.164 0-43.75-19.586-43.75-43.75s19.586-43.75 43.75-43.75zm131.25-218.75c24.164 0 43.75 19.586 43.75 43.75s-19.586 43.75-43.75 43.75h-612.5c-24.164 0-43.75-19.586-43.75-43.75s19.586-43.75 43.75-43.75z"/>
</svg>
