<svg id="visual" viewBox="0 0 540 1860" width="540" height="1860" xmlns="http://www.w3.org/2000/svg" xmlns:xlink="http://www.w3.org/1999/xlink" version="1.1"><g transform="translate(540, 0)"><path d="M0 540C-108.8 534.1 -217.5 528.3 -270 467.7C-322.5 407 -318.6 291.6 -354.2 204.5C-389.8 117.4 -464.9 58.7 -540 0L0 0Z" fill="#f7e3d8"></path><path d="M0 360C-72.5 356.1 -145 352.2 -180 311.8C-215 271.3 -212.4 194.4 -236.1 136.3C-259.9 78.3 -309.9 39.1 -360 0L0 0Z" fill="#f7cdca"></path><path d="M0 180C-36.3 178 -72.5 176.1 -90 155.9C-107.5 135.7 -106.2 97.2 -118.1 68.2C-129.9 39.1 -155 19.6 -180 0L0 0Z" fill="#f5c2c8"></path></g></svg>